<svg width="378" height="213" viewBox="0 0 378 213" fill="none" xmlns="http://www.w3.org/2000/svg">
<rect width="378" height="213" fill="#949494" fill-opacity="0.17"/>
<g clip-path="url(#clip0_402_14)">
<path d="M42.5881 111.495L45.4498 108.453C45.6088 108.284 45.8549 108.228 46.0724 108.311C46.8283 108.601 48.1048 108.959 49.6845 108.82C51.1229 108.692 52.2295 108.204 52.9133 107.821C53.1322 107.699 53.4054 107.733 53.5876 107.907C54.5705 108.844 55.5534 109.78 56.5363 110.717C56.8 110.968 56.7647 111.398 56.4629 111.603C55.2543 112.422 52.9894 113.664 49.9088 113.886C46.6339 114.123 44.0835 113.091 42.7403 112.393C42.4032 112.218 42.327 111.77 42.5881 111.495Z" fill="#A3A3A3"/>
<path d="M51.1799 96.9041C50.5206 96.5459 49.7674 96.3425 48.9667 96.3425C46.4081 96.3425 44.3268 98.4193 44.3268 100.972C44.3268 101.771 44.5307 102.524 44.8896 103.181C45.6767 104.621 47.2089 105.602 48.9667 105.602C51.5252 105.602 53.6066 103.525 53.6066 100.972C53.6052 99.2182 52.6237 97.6895 51.1799 96.9041Z" fill="#A3A3A3"/>
<path fill-rule="evenodd" clip-rule="evenodd" d="M43.6267 94.9629C45.0337 93.7163 46.8785 92.9512 48.8946 92.9336C50.3574 92.9214 51.7319 93.2998 52.9201 93.9699C53.3741 94.2263 53.9451 94.1449 54.3135 93.776L56.6328 91.4618C56.9441 91.1511 56.8952 90.6357 56.5336 90.3847C51.4369 86.847 44.4791 87.3285 40.02 91.5445C37.3717 94.0473 36.0041 97.4901 36 100.971C35.9973 103.598 36.7722 106.248 38.3614 108.529C38.6102 108.887 39.1268 108.929 39.4354 108.621L41.7547 106.307C42.1245 105.94 42.206 105.37 41.9491 104.917C41.2775 103.731 40.8982 102.36 40.9104 100.9C40.9322 98.5441 41.979 96.4225 43.6267 94.9629Z" fill="#A3A3A3"/>
</g>
<path d="M73.224 95.328H77.338C78.3013 95.328 79.1683 95.4753 79.939 95.77C80.7097 96.0647 81.367 96.484 81.911 97.028C82.455 97.5607 82.8687 98.201 83.152 98.949C83.4467 99.697 83.594 100.519 83.594 101.414C83.594 102.321 83.4467 103.148 83.152 103.896C82.8687 104.644 82.455 105.284 81.911 105.817C81.367 106.35 80.7097 106.763 79.939 107.058C79.1683 107.353 78.3013 107.5 77.338 107.5H73.224V95.328ZM77.236 105.324C77.9047 105.324 78.494 105.233 79.004 105.052C79.514 104.859 79.939 104.593 80.279 104.253C80.619 103.913 80.874 103.505 81.044 103.029C81.214 102.542 81.299 102.003 81.299 101.414C81.299 100.825 81.214 100.292 81.044 99.816C80.874 99.3287 80.619 98.915 80.279 98.575C79.939 98.235 79.514 97.9743 79.004 97.793C78.494 97.6003 77.9047 97.504 77.236 97.504H75.519V105.324H77.236ZM86.4118 97.963C86.2191 97.963 86.0321 97.929 85.8508 97.861C85.6808 97.7817 85.5278 97.6797 85.3918 97.555C85.2671 97.419 85.1651 97.266 85.0858 97.096C85.0178 96.926 84.9838 96.739 84.9838 96.535C84.9838 96.331 85.0178 96.144 85.0858 95.974C85.1651 95.804 85.2671 95.6567 85.3918 95.532C85.5278 95.396 85.6808 95.294 85.8508 95.226C86.0321 95.1467 86.2191 95.107 86.4118 95.107C86.8084 95.107 87.1484 95.2487 87.4318 95.532C87.7151 95.804 87.8568 96.1383 87.8568 96.535C87.8568 96.9317 87.7151 97.2717 87.4318 97.555C87.1484 97.827 86.8084 97.963 86.4118 97.963ZM85.3068 107.5V99.17H87.5338V107.5H85.3068ZM97.3752 105.494C96.9898 106.174 96.4685 106.724 95.8112 107.143C95.1652 107.562 94.3718 107.772 93.4312 107.772C92.7965 107.772 92.2072 107.664 91.6632 107.449C91.1305 107.222 90.6658 106.911 90.2692 106.514C89.8725 106.117 89.5608 105.653 89.3342 105.12C89.1188 104.576 89.0112 103.981 89.0112 103.335C89.0112 102.734 89.1188 102.168 89.3342 101.635C89.5495 101.091 89.8498 100.621 90.2352 100.224C90.6205 99.816 91.0738 99.493 91.5952 99.255C92.1278 99.017 92.7115 98.898 93.3462 98.898C94.0148 98.898 94.6098 99.0113 95.1312 99.238C95.6525 99.4533 96.0888 99.7593 96.4402 100.156C96.7915 100.541 97.0578 101 97.2392 101.533C97.4205 102.066 97.5112 102.644 97.5112 103.267C97.5112 103.346 97.5112 103.414 97.5112 103.471C97.4998 103.539 97.4942 103.601 97.4942 103.658C97.4828 103.715 97.4772 103.777 97.4772 103.845H91.2042C91.2495 104.185 91.3402 104.48 91.4762 104.729C91.6235 104.967 91.7992 105.171 92.0032 105.341C92.2185 105.5 92.4508 105.619 92.7002 105.698C92.9495 105.766 93.2045 105.8 93.4652 105.8C93.9752 105.8 94.3945 105.687 94.7232 105.46C95.0632 105.222 95.3295 104.927 95.5222 104.576L97.3752 105.494ZM95.3522 102.264C95.3408 102.117 95.2898 101.952 95.1992 101.771C95.1198 101.59 94.9952 101.42 94.8252 101.261C94.6665 101.102 94.4625 100.972 94.2132 100.87C93.9752 100.768 93.6862 100.717 93.3462 100.717C92.8702 100.717 92.4508 100.853 92.0882 101.125C91.7255 101.397 91.4705 101.777 91.3232 102.264H95.3522ZM102.858 111.444C102.269 111.444 101.742 111.365 101.277 111.206C100.824 111.059 100.427 110.86 100.087 110.611C99.7475 110.373 99.4641 110.107 99.2375 109.812C99.0108 109.517 98.8465 109.223 98.7445 108.928L100.869 108.078C101.028 108.52 101.289 108.86 101.651 109.098C102.014 109.347 102.416 109.472 102.858 109.472C103.561 109.472 104.116 109.251 104.524 108.809C104.932 108.378 105.136 107.772 105.136 106.99V106.412H105C104.74 106.775 104.394 107.064 103.963 107.279C103.544 107.483 103.045 107.585 102.467 107.585C101.969 107.585 101.481 107.483 101.005 107.279C100.541 107.075 100.127 106.786 99.7645 106.412C99.4018 106.027 99.1071 105.568 98.8805 105.035C98.6538 104.502 98.5405 103.907 98.5405 103.25C98.5405 102.593 98.6538 101.998 98.8805 101.465C99.1071 100.921 99.4018 100.462 99.7645 100.088C100.127 99.7027 100.541 99.408 101.005 99.204C101.481 99 101.969 98.898 102.467 98.898C103.045 98.898 103.544 99.0057 103.963 99.221C104.394 99.425 104.74 99.7083 105 100.071H105.136V99.17H107.261V106.905C107.261 107.608 107.154 108.237 106.938 108.792C106.723 109.359 106.423 109.835 106.037 110.22C105.652 110.617 105.187 110.917 104.643 111.121C104.111 111.336 103.516 111.444 102.858 111.444ZM102.943 105.579C103.215 105.579 103.482 105.528 103.742 105.426C104.014 105.324 104.252 105.177 104.456 104.984C104.66 104.78 104.825 104.536 104.949 104.253C105.074 103.958 105.136 103.624 105.136 103.25C105.136 102.876 105.074 102.542 104.949 102.247C104.825 101.952 104.66 101.709 104.456 101.516C104.252 101.312 104.014 101.159 103.742 101.057C103.482 100.955 103.215 100.904 102.943 100.904C102.671 100.904 102.405 100.955 102.144 101.057C101.884 101.159 101.651 101.312 101.447 101.516C101.243 101.72 101.079 101.969 100.954 102.264C100.83 102.547 100.767 102.876 100.767 103.25C100.767 103.624 100.83 103.958 100.954 104.253C101.079 104.536 101.243 104.78 101.447 104.984C101.651 105.177 101.884 105.324 102.144 105.426C102.405 105.528 102.671 105.579 102.943 105.579ZM113.021 98.898C113.667 98.898 114.256 99.0113 114.789 99.238C115.333 99.4533 115.798 99.7593 116.183 100.156C116.58 100.541 116.886 101.006 117.101 101.55C117.328 102.094 117.441 102.689 117.441 103.335C117.441 103.981 117.328 104.576 117.101 105.12C116.886 105.664 116.58 106.134 116.183 106.531C115.798 106.916 115.333 107.222 114.789 107.449C114.256 107.664 113.667 107.772 113.021 107.772C112.375 107.772 111.78 107.664 111.236 107.449C110.703 107.222 110.239 106.916 109.842 106.531C109.457 106.134 109.151 105.664 108.924 105.12C108.709 104.576 108.601 103.981 108.601 103.335C108.601 102.689 108.709 102.094 108.924 101.55C109.151 101.006 109.457 100.541 109.842 100.156C110.239 99.7593 110.703 99.4533 111.236 99.238C111.78 99.0113 112.375 98.898 113.021 98.898ZM113.021 105.715C113.304 105.715 113.576 105.664 113.837 105.562C114.109 105.449 114.347 105.29 114.551 105.086C114.755 104.882 114.914 104.633 115.027 104.338C115.152 104.043 115.214 103.709 115.214 103.335C115.214 102.961 115.152 102.627 115.027 102.332C114.914 102.037 114.755 101.788 114.551 101.584C114.347 101.38 114.109 101.227 113.837 101.125C113.576 101.012 113.304 100.955 113.021 100.955C112.726 100.955 112.449 101.012 112.188 101.125C111.927 101.227 111.695 101.38 111.491 101.584C111.287 101.788 111.123 102.037 110.998 102.332C110.885 102.627 110.828 102.961 110.828 103.335C110.828 103.709 110.885 104.043 110.998 104.338C111.123 104.633 111.287 104.882 111.491 105.086C111.695 105.29 111.927 105.449 112.188 105.562C112.449 105.664 112.726 105.715 113.021 105.715Z" fill="#A3A3A3"/>
<path d="M133.521 105.545C132.921 106.27 132.212 106.826 131.396 107.211C130.58 107.585 129.668 107.772 128.659 107.772C127.753 107.772 126.908 107.608 126.126 107.279C125.356 106.95 124.687 106.503 124.12 105.936C123.554 105.369 123.106 104.701 122.777 103.93C122.449 103.148 122.284 102.309 122.284 101.414C122.284 100.519 122.449 99.6857 122.777 98.915C123.106 98.133 123.554 97.4587 124.12 96.892C124.687 96.3253 125.356 95.8777 126.126 95.549C126.908 95.2203 127.753 95.056 128.659 95.056C129.634 95.056 130.49 95.226 131.226 95.566C131.974 95.906 132.637 96.399 133.215 97.045L131.6 98.609C131.238 98.1897 130.818 97.8553 130.342 97.606C129.878 97.3567 129.322 97.232 128.676 97.232C128.11 97.232 127.577 97.334 127.078 97.538C126.58 97.7307 126.143 98.0083 125.769 98.371C125.407 98.7337 125.118 99.1757 124.902 99.697C124.687 100.207 124.579 100.779 124.579 101.414C124.579 102.049 124.687 102.627 124.902 103.148C125.118 103.658 125.407 104.094 125.769 104.457C126.143 104.82 126.58 105.103 127.078 105.307C127.577 105.5 128.11 105.596 128.676 105.596C129.356 105.596 129.957 105.46 130.478 105.188C131.011 104.905 131.481 104.508 131.889 103.998L133.521 105.545ZM139.894 106.616H139.758C139.497 106.933 139.18 107.205 138.806 107.432C138.443 107.659 137.973 107.772 137.395 107.772C136.964 107.772 136.556 107.698 136.171 107.551C135.797 107.415 135.468 107.222 135.185 106.973C134.901 106.724 134.68 106.423 134.522 106.072C134.363 105.721 134.284 105.335 134.284 104.916C134.284 104.485 134.369 104.1 134.539 103.76C134.709 103.409 134.947 103.108 135.253 102.859C135.559 102.61 135.916 102.423 136.324 102.298C136.743 102.162 137.196 102.094 137.684 102.094C138.228 102.094 138.675 102.139 139.027 102.23C139.378 102.309 139.667 102.394 139.894 102.485V102.23C139.894 101.788 139.718 101.425 139.367 101.142C139.015 100.847 138.579 100.7 138.058 100.7C137.287 100.7 136.635 101.023 136.103 101.669L134.488 100.564C135.372 99.4533 136.579 98.898 138.109 98.898C139.401 98.898 140.387 99.204 141.067 99.816C141.747 100.417 142.087 101.312 142.087 102.502V107.5H139.894V106.616ZM139.894 104.117C139.633 103.992 139.361 103.896 139.078 103.828C138.806 103.749 138.505 103.709 138.177 103.709C137.644 103.709 137.23 103.828 136.936 104.066C136.652 104.293 136.511 104.576 136.511 104.916C136.511 105.256 136.647 105.528 136.919 105.732C137.202 105.936 137.525 106.038 137.888 106.038C138.182 106.038 138.454 105.987 138.704 105.885C138.953 105.772 139.163 105.63 139.333 105.46C139.514 105.279 139.65 105.075 139.741 104.848C139.843 104.61 139.894 104.366 139.894 104.117ZM143.857 99.17H145.948V100.326H146.084C146.186 100.122 146.322 99.935 146.492 99.765C146.662 99.595 146.849 99.4477 147.053 99.323C147.269 99.1983 147.495 99.102 147.733 99.034C147.983 98.966 148.226 98.932 148.464 98.932C148.759 98.932 149.008 98.9603 149.212 99.017C149.428 99.0737 149.609 99.1473 149.756 99.238L149.161 101.261C149.025 101.193 148.872 101.142 148.702 101.108C148.544 101.063 148.345 101.04 148.107 101.04C147.801 101.04 147.524 101.102 147.274 101.227C147.025 101.34 146.81 101.505 146.628 101.72C146.458 101.935 146.322 102.19 146.22 102.485C146.13 102.768 146.084 103.08 146.084 103.42V107.5H143.857V99.17ZM150.863 95.328H153.09V98.983L152.954 100.173H153.09C153.294 99.8217 153.611 99.5213 154.042 99.272C154.473 99.0227 155.005 98.898 155.64 98.898C156.173 98.898 156.677 99.0113 157.153 99.238C157.64 99.4533 158.065 99.7593 158.428 100.156C158.802 100.541 159.097 101.006 159.312 101.55C159.527 102.094 159.635 102.689 159.635 103.335C159.635 103.981 159.527 104.576 159.312 105.12C159.097 105.664 158.802 106.134 158.428 106.531C158.065 106.916 157.64 107.222 157.153 107.449C156.677 107.664 156.173 107.772 155.64 107.772C155.005 107.772 154.473 107.647 154.042 107.398C153.611 107.149 153.294 106.848 153.09 106.497H152.954V107.5H150.863V95.328ZM155.181 105.715C155.476 105.715 155.753 105.658 156.014 105.545C156.286 105.432 156.524 105.273 156.728 105.069C156.932 104.865 157.096 104.616 157.221 104.321C157.346 104.026 157.408 103.698 157.408 103.335C157.408 102.972 157.346 102.644 157.221 102.349C157.096 102.054 156.932 101.805 156.728 101.601C156.524 101.397 156.286 101.238 156.014 101.125C155.753 101.012 155.476 100.955 155.181 100.955C154.886 100.955 154.603 101.012 154.331 101.125C154.07 101.227 153.838 101.38 153.634 101.584C153.43 101.788 153.266 102.037 153.141 102.332C153.016 102.627 152.954 102.961 152.954 103.335C152.954 103.709 153.016 104.043 153.141 104.338C153.266 104.633 153.43 104.882 153.634 105.086C153.838 105.29 154.07 105.449 154.331 105.562C154.603 105.664 154.886 105.715 155.181 105.715ZM165 98.898C165.646 98.898 166.236 99.0113 166.768 99.238C167.312 99.4533 167.777 99.7593 168.162 100.156C168.559 100.541 168.865 101.006 169.08 101.55C169.307 102.094 169.42 102.689 169.42 103.335C169.42 103.981 169.307 104.576 169.08 105.12C168.865 105.664 168.559 106.134 168.162 106.531C167.777 106.916 167.312 107.222 166.768 107.449C166.236 107.664 165.646 107.772 165 107.772C164.354 107.772 163.759 107.664 163.215 107.449C162.683 107.222 162.218 106.916 161.821 106.531C161.436 106.134 161.13 105.664 160.903 105.12C160.688 104.576 160.58 103.981 160.58 103.335C160.58 102.689 160.688 102.094 160.903 101.55C161.13 101.006 161.436 100.541 161.821 100.156C162.218 99.7593 162.683 99.4533 163.215 99.238C163.759 99.0113 164.354 98.898 165 98.898ZM165 105.715C165.284 105.715 165.556 105.664 165.816 105.562C166.088 105.449 166.326 105.29 166.53 105.086C166.734 104.882 166.893 104.633 167.006 104.338C167.131 104.043 167.193 103.709 167.193 103.335C167.193 102.961 167.131 102.627 167.006 102.332C166.893 102.037 166.734 101.788 166.53 101.584C166.326 101.38 166.088 101.227 165.816 101.125C165.556 101.012 165.284 100.955 165 100.955C164.706 100.955 164.428 101.012 164.167 101.125C163.907 101.227 163.674 101.38 163.47 101.584C163.266 101.788 163.102 102.037 162.977 102.332C162.864 102.627 162.807 102.961 162.807 103.335C162.807 103.709 162.864 104.043 162.977 104.338C163.102 104.633 163.266 104.882 163.47 105.086C163.674 105.29 163.907 105.449 164.167 105.562C164.428 105.664 164.706 105.715 165 105.715ZM172.776 100.258H172.912C173.173 99.8387 173.524 99.51 173.966 99.272C174.408 99.0227 174.913 98.898 175.479 98.898C176.001 98.898 176.46 98.983 176.856 99.153C177.253 99.323 177.576 99.5667 177.825 99.884C178.086 100.19 178.279 100.564 178.403 101.006C178.539 101.437 178.607 101.918 178.607 102.451V107.5H176.38V102.723C176.38 102.122 176.244 101.68 175.972 101.397C175.712 101.102 175.326 100.955 174.816 100.955C174.51 100.955 174.238 101.023 174 101.159C173.774 101.284 173.575 101.459 173.405 101.686C173.247 101.901 173.122 102.162 173.031 102.468C172.952 102.763 172.912 103.08 172.912 103.42V107.5H170.685V99.17H172.776V100.258ZM188.335 105.494C187.95 106.174 187.428 106.724 186.771 107.143C186.125 107.562 185.332 107.772 184.391 107.772C183.756 107.772 183.167 107.664 182.623 107.449C182.09 107.222 181.626 106.911 181.229 106.514C180.832 106.117 180.521 105.653 180.294 105.12C180.079 104.576 179.971 103.981 179.971 103.335C179.971 102.734 180.079 102.168 180.294 101.635C180.509 101.091 180.81 100.621 181.195 100.224C181.58 99.816 182.034 99.493 182.555 99.255C183.088 99.017 183.671 98.898 184.306 98.898C184.975 98.898 185.57 99.0113 186.091 99.238C186.612 99.4533 187.049 99.7593 187.4 100.156C187.751 100.541 188.018 101 188.199 101.533C188.38 102.066 188.471 102.644 188.471 103.267C188.471 103.346 188.471 103.414 188.471 103.471C188.46 103.539 188.454 103.601 188.454 103.658C188.443 103.715 188.437 103.777 188.437 103.845H182.164C182.209 104.185 182.3 104.48 182.436 104.729C182.583 104.967 182.759 105.171 182.963 105.341C183.178 105.5 183.411 105.619 183.66 105.698C183.909 105.766 184.164 105.8 184.425 105.8C184.935 105.8 185.354 105.687 185.683 105.46C186.023 105.222 186.289 104.927 186.482 104.576L188.335 105.494ZM186.312 102.264C186.301 102.117 186.25 101.952 186.159 101.771C186.08 101.59 185.955 101.42 185.785 101.261C185.626 101.102 185.422 100.972 185.173 100.87C184.935 100.768 184.646 100.717 184.306 100.717C183.83 100.717 183.411 100.853 183.048 101.125C182.685 101.397 182.43 101.777 182.283 102.264H186.312Z" fill="#666666"/>
<path d="M38.788 130.07V135H37.224V122.828H41.372C42.426 122.828 43.3213 123.179 44.058 123.882C44.806 124.585 45.18 125.44 45.18 126.449C45.18 127.48 44.806 128.342 44.058 129.033C43.3327 129.724 42.4373 130.07 41.372 130.07H38.788ZM38.788 124.324V128.574H41.406C42.0293 128.574 42.545 128.364 42.953 127.945C43.3723 127.526 43.582 127.027 43.582 126.449C43.582 125.882 43.3723 125.389 42.953 124.97C42.545 124.539 42.0293 124.324 41.406 124.324H38.788ZM48.5707 123.797C48.5707 124.103 48.463 124.364 48.2477 124.579C48.0324 124.794 47.7717 124.902 47.4657 124.902C47.1597 124.902 46.899 124.794 46.6837 124.579C46.4684 124.364 46.3607 124.103 46.3607 123.797C46.3607 123.491 46.4684 123.23 46.6837 123.015C46.899 122.8 47.1597 122.692 47.4657 122.692C47.7717 122.692 48.0324 122.8 48.2477 123.015C48.463 123.23 48.5707 123.491 48.5707 123.797ZM48.2477 126.67V135H46.6837V126.67H48.2477ZM54.008 135.272C52.7727 135.272 51.747 134.853 50.931 134.014C50.1264 133.153 49.724 132.093 49.724 130.835C49.724 129.554 50.1264 128.495 50.931 127.656C51.747 126.817 52.7727 126.398 54.008 126.398C54.858 126.398 55.6004 126.613 56.235 127.044C56.8697 127.463 57.3457 128.047 57.663 128.795L56.235 129.39C55.793 128.347 55.0167 127.826 53.906 127.826C53.192 127.826 52.5744 128.115 52.053 128.693C51.543 129.271 51.288 129.985 51.288 130.835C51.288 131.685 51.543 132.399 52.053 132.977C52.5744 133.555 53.192 133.844 53.906 133.844C55.0507 133.844 55.8554 133.323 56.32 132.28L57.714 132.875C57.408 133.623 56.9264 134.212 56.269 134.643C55.623 135.062 54.8694 135.272 54.008 135.272ZM62.2969 135.136C61.6169 135.136 61.0502 134.926 60.5969 134.507C60.1549 134.088 59.9282 133.504 59.9169 132.756V128.098H58.4549V126.67H59.9169V124.12H61.4809V126.67H63.5209V128.098H61.4809V132.246C61.4809 132.801 61.5885 133.181 61.8039 133.385C62.0192 133.578 62.2629 133.674 62.5349 133.674C62.6595 133.674 62.7785 133.663 62.8919 133.64C63.0165 133.606 63.1299 133.566 63.2319 133.521L63.7249 134.915C63.3169 135.062 62.8409 135.136 62.2969 135.136ZM72.3186 135H70.8226V133.844H70.7546C70.5166 134.252 70.1483 134.592 69.6496 134.864C69.1623 135.136 68.6523 135.272 68.1196 135.272C67.0996 135.272 66.312 134.983 65.7566 134.405C65.2126 133.816 64.9406 132.983 64.9406 131.906V126.67H66.5046V131.804C66.5386 133.164 67.2243 133.844 68.5616 133.844C69.185 133.844 69.7063 133.595 70.1256 133.096C70.545 132.586 70.7546 131.98 70.7546 131.277V126.67H72.3186V135ZM75.7865 135H74.2225V126.67H75.7185V128.03H75.7865C75.9452 127.588 76.2682 127.214 76.7555 126.908C77.2542 126.591 77.7415 126.432 78.2175 126.432C78.6708 126.432 79.0562 126.5 79.3735 126.636L78.8975 128.149C78.7048 128.07 78.3988 128.03 77.9795 128.03C77.3902 128.03 76.8745 128.268 76.4325 128.744C76.0018 129.22 75.7865 129.775 75.7865 130.41V135ZM83.6236 135.272C82.3996 135.272 81.391 134.853 80.5976 134.014C79.8043 133.175 79.4076 132.116 79.4076 130.835C79.4076 129.566 79.793 128.512 80.5636 127.673C81.3343 126.823 82.3203 126.398 83.5216 126.398C84.757 126.398 85.7373 126.8 86.4626 127.605C87.1993 128.398 87.5676 129.515 87.5676 130.954L87.5506 131.124H81.0056C81.0283 131.94 81.3003 132.597 81.8216 133.096C82.343 133.595 82.9663 133.844 83.6916 133.844C84.689 133.844 85.471 133.345 86.0376 132.348L87.4316 133.028C87.0576 133.731 86.5363 134.28 85.8676 134.677C85.2103 135.074 84.4623 135.272 83.6236 135.272ZM81.1246 129.832H85.9016C85.8563 129.254 85.6183 128.778 85.1876 128.404C84.7683 128.019 84.2016 127.826 83.4876 127.826C82.8983 127.826 82.3883 128.007 81.9576 128.37C81.5383 128.733 81.2606 129.22 81.1246 129.832ZM92.7333 126.67H94.2293V127.826H94.2973C94.5353 127.418 94.8979 127.078 95.3853 126.806C95.8839 126.534 96.3996 126.398 96.9323 126.398C97.9523 126.398 98.7343 126.693 99.2783 127.282C99.8336 127.86 100.111 128.687 100.111 129.764V135H98.5473V129.866C98.5133 128.506 97.8276 127.826 96.4903 127.826C95.8669 127.826 95.3456 128.081 94.9263 128.591C94.5069 129.09 94.2973 129.69 94.2973 130.393V135H92.7333V126.67ZM101.471 130.835C101.471 129.554 101.873 128.495 102.678 127.656C103.494 126.817 104.52 126.398 105.755 126.398C106.99 126.398 108.01 126.817 108.815 127.656C109.631 128.495 110.039 129.554 110.039 130.835C110.039 132.127 109.631 133.187 108.815 134.014C108.01 134.853 106.99 135.272 105.755 135.272C104.52 135.272 103.494 134.853 102.678 134.014C101.873 133.175 101.471 132.116 101.471 130.835ZM103.035 130.835C103.035 131.73 103.296 132.456 103.817 133.011C104.338 133.566 104.984 133.844 105.755 133.844C106.526 133.844 107.172 133.566 107.693 133.011C108.214 132.456 108.475 131.73 108.475 130.835C108.475 129.951 108.214 129.231 107.693 128.676C107.16 128.109 106.514 127.826 105.755 127.826C104.996 127.826 104.35 128.109 103.817 128.676C103.296 129.231 103.035 129.951 103.035 130.835ZM114.509 135.136C113.829 135.136 113.262 134.926 112.809 134.507C112.367 134.088 112.14 133.504 112.129 132.756V128.098H110.667V126.67H112.129V124.12H113.693V126.67H115.733V128.098H113.693V132.246C113.693 132.801 113.8 133.181 114.016 133.385C114.231 133.578 114.475 133.674 114.747 133.674C114.871 133.674 114.99 133.663 115.104 133.64C115.228 133.606 115.342 133.566 115.444 133.521L115.937 134.915C115.529 135.062 115.053 135.136 114.509 135.136ZM124.466 122.692C125.033 122.692 125.497 122.788 125.86 122.981L125.435 124.358C125.163 124.222 124.857 124.154 124.517 124.154C124.132 124.154 123.814 124.29 123.565 124.562C123.327 124.823 123.208 125.174 123.208 125.616V126.67H125.384V128.098H123.208V135H121.644V128.098H120.08V126.67H121.644V125.463C121.644 124.636 121.905 123.967 122.426 123.457C122.959 122.947 123.639 122.692 124.466 122.692ZM125.892 130.835C125.892 129.554 126.294 128.495 127.099 127.656C127.915 126.817 128.941 126.398 130.176 126.398C131.411 126.398 132.431 126.817 133.236 127.656C134.052 128.495 134.46 129.554 134.46 130.835C134.46 132.127 134.052 133.187 133.236 134.014C132.431 134.853 131.411 135.272 130.176 135.272C128.941 135.272 127.915 134.853 127.099 134.014C126.294 133.175 125.892 132.116 125.892 130.835ZM127.456 130.835C127.456 131.73 127.717 132.456 128.238 133.011C128.759 133.566 129.405 133.844 130.176 133.844C130.947 133.844 131.593 133.566 132.114 133.011C132.635 132.456 132.896 131.73 132.896 130.835C132.896 129.951 132.635 129.231 132.114 128.676C131.581 128.109 130.935 127.826 130.176 127.826C129.417 127.826 128.771 128.109 128.238 128.676C127.717 129.231 127.456 129.951 127.456 130.835ZM143.108 135H141.612V133.844H141.544C141.306 134.252 140.937 134.592 140.439 134.864C139.951 135.136 139.441 135.272 138.909 135.272C137.889 135.272 137.101 134.983 136.546 134.405C136.002 133.816 135.73 132.983 135.73 131.906V126.67H137.294V131.804C137.328 133.164 138.013 133.844 139.351 133.844C139.974 133.844 140.495 133.595 140.915 133.096C141.334 132.586 141.544 131.98 141.544 131.277V126.67H143.108V135ZM145.012 126.67H146.508V127.826H146.576C146.814 127.418 147.176 127.078 147.664 126.806C148.162 126.534 148.678 126.398 149.211 126.398C150.231 126.398 151.013 126.693 151.557 127.282C152.112 127.86 152.39 128.687 152.39 129.764V135H150.826V129.866C150.792 128.506 150.106 127.826 148.769 127.826C148.145 127.826 147.624 128.081 147.205 128.591C146.785 129.09 146.576 129.69 146.576 130.393V135H145.012V126.67ZM157.965 133.844C158.736 133.844 159.365 133.566 159.852 133.011C160.362 132.456 160.617 131.73 160.617 130.835C160.617 129.962 160.362 129.243 159.852 128.676C159.354 128.109 158.725 127.826 157.965 127.826C157.217 127.826 156.588 128.109 156.078 128.676C155.568 129.243 155.313 129.962 155.313 130.835C155.313 131.719 155.568 132.439 156.078 132.994C156.588 133.561 157.217 133.844 157.965 133.844ZM157.71 135.272C156.622 135.272 155.687 134.841 154.905 133.98C154.135 133.107 153.749 132.059 153.749 130.835C153.749 129.611 154.135 128.563 154.905 127.69C155.687 126.829 156.622 126.398 157.71 126.398C158.322 126.398 158.878 126.528 159.376 126.789C159.886 127.05 160.277 127.395 160.549 127.826H160.617L160.549 126.67V122.828H162.113V135H160.617V133.844H160.549C160.277 134.275 159.886 134.62 159.376 134.881C158.878 135.142 158.322 135.272 157.71 135.272Z" fill="#838383" fill-opacity="0.35"/>
<mask id="mask0_402_14" style="mask-type:alpha" maskUnits="userSpaceOnUse" x="217" y="45" width="123" height="124">
<rect x="217" y="45.5" width="123" height="123" fill="#D9D9D9"/>
</mask>
<g mask="url(#mask0_402_14)">
<path d="M324.625 138.519L314.375 128.269V71.125H257.231L246.981 60.875H314.375C317.194 60.875 319.607 61.8786 321.614 63.8859C323.622 65.8932 324.625 68.3062 324.625 71.125V138.519ZM318.475 161.325L310.275 153.125H242.625C239.806 153.125 237.393 152.121 235.386 150.114C233.379 148.107 232.375 145.694 232.375 142.875V75.225L224.175 67.025L231.35 59.85L325.65 154.15L318.475 161.325ZM247.75 132.625L263.125 112.125L274.656 127.5L278.885 121.863L242.625 85.6031V142.875H299.897L289.647 132.625H247.75Z" fill="black" fill-opacity="0.39"/>
</g>
<defs>
<clipPath id="clip0_402_14">
<rect width="26" height="26" fill="white" transform="translate(36 88)"/>
</clipPath>
</defs>
</svg>
