<svg id="Capa_1" data-name="Capa 1" xmlns="http://www.w3.org/2000/svg" viewBox="0 0 1902 516"><defs><style>.cls-1{fill:#fff;}</style></defs><title>ap-logo-dark</title><path class="cls-1" d="M656,65.64c0-4.59-5.48-25.4-7.81-29.26C634.26,13.43,614,.7,587,.59,509.92.25,432.79.47,355.66.47q-143,0-286,.05c-3.78,0-7.56-.62-11.4.68C43.76,6.11,30.05,11.78,19.55,24.08,9.48,35.88,3.21,48.64,3.21,64.18q-.06,191.08-.16,382.17A53.08,53.08,0,0,0,5.9,463.43c2.87,8.56,5.7,17.31,13.69,22.95a33.15,33.15,0,0,1,4.62,4.56c12.3,13,27.72,19.16,45.31,19.2q130,.25,260,.08,128.7,0,257.38,0c14.41,0,26.87-4.59,39.09-12.49,19.49-12.59,29.5-30.88,29.63-52.54C656.36,318.69,656,192.16,656,65.64ZM222.21,292.75c-9.56,13.18-20.79,25-30.84,37.71-6.21,7.88-12.69,15.84-19.68,23.26-7.52,8-15.54,12.91-27.13,10.4-2.44-2.73-6.53-4-9.75-6.74-8.74-7.5-9-25.19-1-34C147.34,308.55,158.94,292,172.39,277c8.35-9.32,15-20.14,24.09-28.9,2.55-2.48,1.16-6.66,5.11-7.71C176,209.31,150.48,181,127.78,150.56c1-6-1.13-11.64,1.12-17,5.45-12.9,25.48-23.21,39.28-8.4,8.26,8.88,15.8,18.35,23.18,28,5.09,6.65,11.41,12.35,16.47,19.2,5.25,7.11,12.73,12.78,17,20.34,4.41,7.82,13,11.94,16.09,20.59.65,1.84,2.88,3.16,4.47,4.63,9.06,8.39,14.45,18.25,13.19,26.49-3.5,13.3-12,17.59-16.64,25.18C236.71,278.15,228.15,284.56,222.21,292.75ZM460.89,403.12c-2.13,6.49-5.6,10.07-9.17,13.64-3.8,3.79-8.27,5.08-13.51,5.07q-82.44-.09-164.88-.07c-11.5,0-22.37-10.52-23.12-21.63-.27-3.92,4.64-6.37,2.32-11.18a60.63,60.63,0,0,0,4.73-4.11c4.85-5.11,10.46-7.42,17.78-7.39,57.12.23,114.24.13,171.36.13,3,2.16,4.83,6,9.09,6.27-.25,4.09,3.52,5.49,5.4,8.1Z"/><path class="cls-1" d="M1735.76,358.36c-6.81-15-19.32-21.13-34.59-22.26-15.53-1.15-28.76,5-40.19,15.37-4.63-5.08-9.15-10.61-15.62-12.69-6.65-2.14-13.68-3.79-20.95-2.84-11.53,1.49-21.2,7.29-31.64,14.33-.34-4.56-.58-7.81-.83-11.12h-33.12V463.4h38.63V379.06l9-9.25h18.3l6.93,6.92v86.41h38.23V376.79c2.63-2.73,4.74-4.9,6.78-7H1695c8.78,9.08,9.08,9.75,9.09,21q0,20.14,0,40.3v32h36.41c0-29.7.31-59.08-.29-88.45C1740.09,369.33,1738.16,363.65,1735.76,358.36Z"/><path class="cls-1" d="M1310,341.3c-10.06-2-20.13-4.52-30.3-5.1a145.81,145.81,0,0,0-36.63,2c-14,2.76-25.82,8.7-34.86,19.22-8.33,9.7-11.88,22.18-13.61,34.47a78.91,78.91,0,0,0,5,41.91c5.3,12.54,11.53,24.69,27.23,27,3.58,4.73,8.78,1.73,13.15,2.69,5.13,1.13,18.69-.51,22.78-2.77,5-2.75,9.85-5.77,13.72-10.88,3.42,8.43,0,15.77-2,22.6-2.53,8.93-11.13,12.51-19.56,14.11-5.85,1.12-12.08.27-18.14.2-5.81-.06-11.4-.23-17.22-2.22-5.12-1.74-11.37.3-17.12-4v28.71c1,1,2.4,3.41,3.41,3.26,8.19-1.24,15.37,3.85,23.61,3.06,9-.86,18.17-.45,27.25-.11a50.45,50.45,0,0,0,18.4-2.68c8.45-2.88,17.42-5.93,23.29-12.34,9.15-10,15.21-22.43,15.35-36.3.41-39.78.15-79.57.15-119C1312.46,343.64,1311.42,341.58,1310,341.3ZM1277.59,374c-.08,16.9,0,33.79,0,51.26-5.67,8.17-14.62,10.72-23.78,9.19-8.56-1.43-15.53-6.54-19.52-15.34-2-4.48.93-9.06-2.32-13.42-2.49-3.33-.38-7.35.9-11.51,1.62-5.29,1.42-11.09,4.09-16.57,4.33-8.88,12-11.64,20.53-12.9,5.45-.82,11.12-.16,15.73-.16C1277.8,367.07,1277.61,370.49,1277.59,374Z"/><path class="cls-1" d="M1199.53,121.36c-2.16-1.86-3.48-3.75-6.58-4-7-.62-14-1.77-20.86-3-15.93-2.8-33.81-2.94-48,1.9-5.31,1.81-11,2.94-15.83,5.62-20.14,11.16-26,30.52-28.25,51.56-.51,4.7.46,9.59-.21,14.25-.77,5.32,1.86,9.85,3.07,14.43,4.56,17.29,11,30,30.55,35.9,6.2,1.88,12.59,5.75,18.92,4.05,10.81-2.92,22.3-5.28,30.45-16.9a63,63,0,0,1-1.91,21.22c-2.63,10.56-10.77,15.41-19,16.24-16.26,1.64-32.92,1.64-49-3.39a22.57,22.57,0,0,1-2.48-1.22c-5.28,8.88-1.44,18.46-2.84,27.08,4.69,6,12.09,3.28,17.25,6.64,18.22-1.28,36.52,2,54.81-2.28,9.61-2.27,18.18-6.7,24.35-12.88a52,52,0,0,0,15.38-36.18C1199.79,200.64,1199.53,160.87,1199.53,121.36ZM1163.12,202c-2.22,2.22-4,5.33-6.6,6.24s-5.34,1.49-8.06,2.51c-3.78,1.42-8.49.36-11.51.36-8-3.73-13.67-8.31-16.78-15.6-5.65-13.26-4.35-34.25,4.4-45.59,4.16-5.39,11-8.41,18.21-8.95,5.56-.41,11.17-.08,16.17-.08,4,2.4,4.28,5.56,4.25,9.23C1163,167.46,1163.12,184.78,1163.12,202Z"/><path class="cls-1" d="M977.87,239.35,923.68,71.16H869.6c-1.13,1.7-2.5,3-2.89,4.46-6.17,23.75-15.51,46.48-22.16,70.1-6.51,23.14-15.28,45.64-22.34,68.67-2.54,8.28-4.18,16.74-7.8,24.66a14.06,14.06,0,0,0,2.33.67c10.82,0,21.65,0,33.78,0,5-14.87,9.83-29.31,14.75-44h60.78c7.39,13.68,8.87,29.26,14.43,44,6.25,0,12.69.1,19.12,0S972.25,240.32,977.87,239.35ZM874.23,163.87,896,94.42c7.36,24.41,14,46.55,20.94,69.45Z"/><path class="cls-1" d="M941.91,370c-5.6-13.79-14-25.26-28.87-30.52-11.67-4.14-23.17-4.81-35.26-1.07-7.75,2.4-12.11,8.42-18.79,14V338.84H825v161a89,89,0,0,1-.07,9.1c-.34,3.21,2.16,4.4,3.93,6.51,8.88,0,18-.18,27,.09,3.4.1,5.71-1.08,8.13-4.12,0-14.1,0-28.78,0-43.45a2.09,2.09,0,0,1,.46-1.1,3.27,3.27,0,0,1,.67-.6c11.61-1.28,22.87.38,34.4-2.45,15.77-3.87,28.95-11.92,37.06-25.51,5.2-8.71,8.85-18.39,8.11-29.17a153.51,153.51,0,0,1,0-22.08A37.49,37.49,0,0,0,941.91,370Zm-36.12,48.72c-4.23,11.22-13,18.41-24.72,18.7-5.52.14-11,0-16.78,0v-64c6.56-4.86,12.87-6.29,25.94-6.16,14.91,5.67,17.28,17.69,17.93,30.41C908.52,404.72,908.42,411.7,905.79,418.67Z"/><path class="cls-1" d="M1431.34,239.42H1470c0-16.48.33-32.07-.09-47.65-.42-15.25,1.42-30.5-2.14-45.81a53.37,53.37,0,0,0-9.53-20.85c-6.59-8.8-16.49-10.76-26-12.49-6.32-1.16-13,0-19.8,1.79-8.87,2.4-15.73,8.2-23.78,11.25-4-3.08.21-8-2.6-10.29h-30.22V239.21h36V156c3-4.66,7.08-7.5,12.63-9.47h17.6l9.24,5.94Z"/><path class="cls-1" d="M1696.24,156.4c2.77-5.57,7.43-7.68,11.81-9.85h21.74c1.82,3.09,3.49,5.89,5.83,9.84v83.09h38.68c0-23.14-.56-45.26.25-67.32.36-9.9-1.7-19.35-3.26-28.76-1.45-8.71-5.43-17.39-13.5-22.89-14.4-9.81-33.33-10.79-50.42-3.21-1.88.83-3.3,2.7-5.33,2.74-3.13,0-4,2.94-6.08,4.22-1.5.92-1.9,3.79-5,2.8V115.47h-30.72V239.13h36Z"/><path class="cls-1" d="M1171.37,370c-4.39-12.49-12.52-20.28-23-26.56-5.18-3.09-23.18-7.49-28-7.41a125,125,0,0,0-23.66,2.23c-23.06,4.77-34.55,20.36-40.29,39.7-2.59,8.75-2,17.45-2.51,26.23-.67,12.73,2.94,24.3,8.71,35.37,8.58,16.47,23.83,23.63,40.77,26.13,13.56,2,27.43.88,40.7-4.7s21.15-15.37,26.89-27.66c4.67-10,6.55-20.55,5.08-30.5A84.1,84.1,0,0,0,1171.37,370ZM1139,410.3c-.6,2.62-1.66,5.35-1.92,8.22-1,11.29-9,18.66-20.39,18.87-2.16,0-4.44.45-6.46-.08-5-1.33-10.4-2-12.27-8.42-.89-3-3.09-5.65-5.08-9.11,0-9.12.3-19.06-.1-29-.27-6.56,2.29-11.71,5-17.47,3-6.46,7.76-8.19,13.39-8.65,13.6-1.09,20.39,2,24.13,12.64S1141.58,399.12,1139,410.3Z"/><path class="cls-1" d="M1867,368.13c-1.71-5.89-3.75-12.09-8.53-17.3-10.15-11.08-23.44-13.33-36.85-14.66-17.61-1.76-35,.89-52.54,5.92,0,4.56,0,9.26,0,14s.24,9.21.38,14c10.44-2.84,20-5.14,29.94-5.39s20.28-1.68,28.62,6.45c2.87,4.9,5.28,10.56,2.31,17-6.85-.57-13.31,1.5-19.84,2.14a133.7,133.7,0,0,0-25.24,5c-7.92,2.32-14.22,6-18.18,12.14s-7.56,12.86-5.87,20.92c1,4.86-.33,9.75,1.62,14.91,3.62,9.62,9.88,15.5,19.23,18.9,17.94,6.53,34.81,6.67,49.38-7.8,1-1,2-1.47,4.22-1.2,2.27,2.63,0,8.36,4.71,9.89h30.13c0-25.85.16-51.33-.11-76.79C1870.34,380.11,1868.67,373.85,1867,368.13Zm-33.25,63c-1.74,6.27-9.22,6.7-14.54,8.44a20,20,0,0,1-18.73-3.46c-3.31-4.17-3.2-10-2.57-15.85l8.58-8.58c6-1.15,11.42,1,16.76-2.58,2.53-1.7,7.7-1.39,10.5,3.64Z"/><path class="cls-1" d="M1510.94,342.22a82.35,82.35,0,0,0-28.56-6.42,149.87,149.87,0,0,0-49,6.33c2,9-3.46,19.09,2.8,26.68,19.81-3.46,38.28-9.17,53.57-.16,6.59,6.85,7,12.5,5.65,19.41-11.78-1.24-22.29,4.42-33.4,2.52-6.28,3.7-14,3.17-20.27,7.61-7,4.94-12.88,10.43-15.89,18.47-1.28,3.43,1.5,7.48-1.84,11-3.62,3.77,4.94,6.1,1.77,10.21,3.78,12.14,9.23,22.09,23.17,26,6.34,1.76,12.32,2,18.51,2.12,10.75.22,20.33-2.93,27.86-11,1.24-1.32,2.46-2.38,4.62-1.84,3.41,2.64-.82,7.5,2,9.85h30.47c0-30.26.58-60.08-.26-89.86C1531.78,359.06,1524.19,347.55,1510.94,342.22Zm-15.16,91.43c-10.88,6.24-21.67,10.61-33.62,0,.51-5.81-1.57-12.47,4.56-19.65,8.86-2.36,18.46-5.81,29.06-5.17Z"/><path class="cls-1" d="M1902,164.71a77.93,77.93,0,0,0-3.2-23.48c-3.06-10.68-10.07-19.77-21-23.5a97.46,97.46,0,0,0-27.61-5.53c-16-.61-31.48,2-47,6v27c3.28,1.74,4.29-.7,5.6-.84,12.5-1.28,24.8-5,37.54-3.44s18.94,9.18,18.5,23.67c-7.29-2.57-13.47,3.19-20.63,2.28-7.69-1-15.06.85-22.24,2.81-8,2.17-14.71,6.85-20.64,12.95-5.19,5.33-6.64,12.2-8.46,18.58-2.35,8.21.93,16.74,5.21,23.52a34.55,34.55,0,0,0,20.38,15.49c6.35,1.8,12.34,1.92,18.52,2.05,11.26.23,21.09-3.41,28.72-12,.86-1,1.26-1.19,2.2.57,5,.62,1.45,5.56,3.33,8.34h30.57C1901.73,214,1901.3,189.33,1902,164.71Zm-36.66,45.1-12.56,6.42H1838.3c-4.84-3.25-7.72-8.07-9.38-13.74,4.66-12.75,6.6-14.74,18.87-14.56,5.85.09,10.67-5.58,17.53-1.87Z"/><path class="cls-1" d="M1334.84,187.3c-.39-11.74.84-23-2.59-34.22-5.42-17.69-11.46-29.55-31.3-37.13-14.86-5.68-29.44-4.67-43.69,0-16.42,5.42-25.87,17.83-32,35.2-2.08,5.87-.23,12.33-2.83,16.91-3,5.21-3.21,10.9-1.61,14.59,3.24,7.46,1.68,15.34,4.48,22.8,4.14,11,8.77,20.92,19.87,26.63,12.86,6.62,25.2,10.23,37.29,10.23,7.36,0,14.74-.41,22.06.11,7.68.54,14.25-4.93,21.84-2.49V211.91c-6-3-10.06,2-15.13,1.88-9.51-.21-19.11.71-28.53-.23-16.44-1.64-25.22-13.56-22.63-26.26Zm-72.9-40c3.67-8,10.35-10.9,18.26-11.47,6.81-.48,15.13,5.57,17.09,13.47,1.34,5.4,4.42,10.59,3.43,17.42h-41C1259,159.92,1259,153.62,1261.94,147.28Z"/><path class="cls-1" d="M1576.32,211.34h-23.1l-9.82-8.71V143.24h30V114.57h-31V71.1h-30.24c-6,14.12-3.67,29.56-9.15,44.25h-19.62v28.22h20.35c0,18.49-.73,36.59.24,54.6.72,13.19,3.88,25.93,15.24,35.22,6.35,5.19,13.45,8.31,21,8.68,12.07.6,24.49,2.08,36-3.3Z"/><path class="cls-1" d="M1030.49,157c12.9-7.32,25.46-14.73,41-9.08v-35c-9.23-2.74-17.25,1-25.48,2.13s-11.89,10-19,13.34c-3.88-4.27.38-9.72-2.6-13H994.28V239.29h36.21Z"/><path class="cls-1" d="M1042.68,336.46c-8-2.06-15.67.59-23.38,2.12-8.06,1.6-11.06,11-20,13.62V338.81H968.5V463.4c6.43,0,12.44.13,18.44,0s11.82.7,18-.68V381c12.05-10.8,26.39-11.9,40.51-11.17,0-10.95.08-20.78-.12-30.61C1045.29,338.28,1043.6,337.38,1042.68,336.46Z"/><path class="cls-1" d="M1401.44,336.36c-4.76,2-10.34,2.24-14.46,5.87-3.74,3.3-6.42,8-11.57,9.81-3.14-4.13-.6-8.65-2.18-13h-30V463h35.73V381.51c11.88-11.24,26.17-12.51,41.29-11.6V339.49l-3.53-3.52C1411.62,336,1405.82,334.5,1401.44,336.36Z"/><path class="cls-1" d="M1595.29,239.74c6.44,0,12.45.13,18.45,0s11.81.73,17.07-.49V115.14h-35.52Z"/><path class="cls-1" d="M1606,96.66c6,.19,12,0,18.8,0,3.13-3.12,6.45-5.49,8.47-8.68,3.62-5.72,4.2-11.56.92-18.33-2.36-4.86-4.66-7.73-9.94-9.65-7.79-2.84-14.65-2.39-22.53-.06-8.36,2.47-13.55,13.15-12,23.19C1590.87,91.17,1597.07,96.39,1606,96.66Z"/></svg>