<svg width="522" height="769" viewBox="0 0 522 769" fill="none" xmlns="http://www.w3.org/2000/svg">
<g clip-path="url(#clip0_102_37)">
<path d="M153.594 43.7682L465 -146.809L721.5 151.416L326.419 387.543C313.775 395.101 297.407 391.128 289.634 378.615C281.765 365.949 285.654 349.302 298.32 341.434L516.084 206.148C524.457 200.947 527.027 189.944 521.826 181.572C516.625 173.199 505.621 170.629 497.249 175.83L334.236 277.102C323.261 283.919 308.838 280.55 302.02 269.575C295.202 258.601 280.779 255.232 269.805 262.049L220.769 292.512C205.609 301.931 185.684 297.276 176.265 282.115C166.847 266.955 171.502 247.03 186.662 237.612L344.76 139.394C351.888 134.966 354.076 125.598 349.648 118.471C345.22 111.343 335.852 109.155 328.725 113.583L291.383 136.781C278.373 144.864 261.273 140.869 253.19 127.858C245.107 114.847 249.102 97.7472 262.113 89.6643L319.136 54.2389C326.716 49.5297 329.043 39.5672 324.334 31.9869C319.625 24.4067 309.662 22.0793 302.082 26.7885L187.151 98.1891C172.154 107.506 152.444 102.901 143.127 87.9044C133.766 72.8364 138.464 53.0279 153.594 43.7682Z" fill="black" fill-opacity="0.1"/>
<path d="M216.594 508.768L528 318.191L784.5 616.416L389.419 852.544C376.775 860.101 360.407 856.128 352.634 843.616C344.765 830.949 348.654 814.302 361.32 806.434L579.084 671.148C587.457 665.947 590.027 654.944 584.826 646.572C579.625 638.199 568.621 635.629 560.249 640.83L397.236 742.102C386.261 748.919 371.838 745.55 365.02 734.575C358.202 723.601 343.779 720.232 332.805 727.049L283.769 757.512C268.609 766.931 248.684 762.276 239.265 747.115C229.847 731.955 234.502 712.03 249.662 702.612L407.76 604.394C414.888 599.966 417.076 590.598 412.648 583.471C408.22 576.343 398.852 574.155 391.725 578.583L354.383 601.781C341.373 609.864 324.273 605.869 316.19 592.858C308.107 579.847 312.102 562.747 325.113 554.664L382.136 519.239C389.716 514.53 392.043 504.567 387.334 496.987C382.625 489.407 372.662 487.079 365.082 491.789L250.151 563.189C235.154 572.506 215.444 567.901 206.127 552.904C196.766 537.836 201.464 518.028 216.594 508.768Z" fill="black" fill-opacity="0.1"/>
<path d="M239.102 290.28L596.937 71.2886L891.68 413.978L437.694 685.311C423.165 693.995 404.356 689.43 395.424 675.052C386.382 660.497 390.851 641.368 405.406 632.326L655.638 476.871C665.258 470.894 668.212 458.25 662.235 448.63C656.258 439.009 643.615 436.055 633.994 442.032L446.676 558.403C434.065 566.237 417.491 562.365 409.657 549.755C401.823 537.144 385.249 533.272 372.638 541.106L316.292 576.111C298.871 586.934 275.975 581.585 265.153 564.164C254.33 546.743 259.679 523.848 277.1 513.025L458.769 400.164C466.959 395.075 469.474 384.311 464.386 376.121C459.298 367.93 448.533 365.416 440.343 370.504L397.434 397.161C382.484 406.449 362.834 401.858 353.546 386.907C344.258 371.957 348.849 352.307 363.799 343.019L429.324 302.312C438.035 296.901 440.709 285.453 435.298 276.743C429.887 268.032 418.439 265.358 409.728 270.769L277.661 352.815C260.428 363.521 237.78 358.23 227.074 340.997C216.317 323.682 221.715 300.921 239.102 290.28Z" fill="black" fill-opacity="0.05"/>
</g>
<defs>
<clipPath id="clip0_102_37">
<rect width="522" height="769" fill="white"/>
</clipPath>
</defs>
</svg>
