<svg xmlns="http://www.w3.org/2000/svg" viewBox="0 0 1899 518"><defs><style>.cls-1{fill:#191d20;}.cls-2{fill:#fff;}.cls-3{fill:#f8b300;}</style></defs><title>ap-logo-light</title><g id="Capa_2" data-name="Capa 2"><path class="cls-1" d="M326.67,509.41q-130,0-260-.08c-17.59,0-33-6.16-45.32-19.2a32.55,32.55,0,0,0-4.62-4.55c-8-5.64-10.81-14.39-13.68-22.95A52.83,52.83,0,0,1,.21,445.54Q.5,254.45.37,63.38c0-15.54,6.27-28.3,16.35-40.1C27.21,11,40.92,5.3,55.46.39,59.29-.9,63.07-.28,66.85-.28q143-.1,286,0C430-.33,507.08-.55,584.2-.22c26.91.12,47.22,12.84,61.12,35.8,2.34,3.86,7.81,24.67,7.81,29.26,0,126.52.4,253-.36,379.56-.13,21.65-10.15,39.94-29.64,52.54-12.22,7.89-24.68,12.49-39.08,12.49Q455.35,509.39,326.67,509.41Z"/><path class="cls-2" d="M198.76,239.61c-25.65-31.1-51.11-59.45-73.81-89.85,1-6-1.14-11.65,1.11-17,5.45-12.9,25.49-23.22,39.28-8.4,8.26,8.88,15.8,18.35,23.19,28,5.08,6.65,11.41,12.35,16.46,19.2,5.25,7.1,12.73,12.78,17,20.34,4.41,7.82,13,11.94,16.08,20.58.66,1.85,2.89,3.16,4.48,4.63,9,8.4,14.45,18.26,13.18,26.49-3.5,13.31-12,17.6-16.64,25.19-5.22,8.53-13.77,14.95-19.71,23.14-9.57,13.17-20.79,24.95-30.85,37.71-6.21,7.88-12.69,15.84-19.68,23.26-7.51,8-15.54,12.9-27.13,10.4-2.44-2.73-6.53-4-9.75-6.75-8.74-7.49-9-25.18-1-34,13.53-14.87,25.13-31.38,38.59-46.39,8.35-9.32,15-20.15,24.08-28.91C196.2,244.84,194.81,240.66,198.76,239.61Z"/><path class="cls-3" d="M443.57,376.77c3,2.17,4.83,6,9.08,6.28-.25,4.08,3.52,5.49,5.41,8.1v11.17c-2.14,6.49-5.61,10.07-9.18,13.63-3.79,3.8-8.27,5.08-13.51,5.08-55-.07-109.92,0-164.88-.08-11.49,0-22.37-10.52-23.12-21.62-.27-3.92,4.64-6.38,2.32-11.18a60.81,60.81,0,0,0,4.73-4.12c4.86-5.11,10.46-7.42,17.78-7.39C329.32,376.88,386.44,376.77,443.57,376.77Z"/><path class="cls-1" d="M1732.93,357.56c-6.82-15-19.33-21.13-34.59-22.26-15.54-1.16-28.76,5-40.2,15.36-4.63-5.07-9.15-10.6-15.61-12.68-6.66-2.15-13.69-3.79-21-2.85-11.53,1.5-21.2,7.29-31.64,14.34-.34-4.56-.58-7.82-.82-11.12H1556V462.6h38.63V378.26l9-9.25h18.29l6.93,6.91v86.42h38.23V376l6.78-7h18.26c8.78,9.08,9.09,9.76,9.1,21q0,20.16,0,40.3v32h36.41c0-29.7.31-59.09-.28-88.45C1737.26,368.53,1735.32,362.85,1732.93,357.56Z"/><path class="cls-1" d="M1307.18,340.5c-10-2-20.13-4.52-30.3-5.1a145.81,145.81,0,0,0-36.63,2c-14,2.75-25.81,8.7-34.86,19.22-8.33,9.69-11.88,22.17-13.6,34.47a78.77,78.77,0,0,0,5,41.9c5.3,12.55,11.54,24.7,27.23,27,3.59,4.73,8.78,1.73,13.16,2.69,5.12,1.12,18.68-.52,22.78-2.77,5-2.75,9.85-5.78,13.71-10.89,3.42,8.44,0,15.78-2,22.61-2.53,8.93-11.13,12.51-19.56,14.11-5.84,1.11-12.08.27-18.13.2-5.82-.07-11.4-.24-17.23-2.22-5.11-1.74-11.37.3-17.12-4v28.7c1,1,2.4,3.42,3.42,3.26,8.18-1.23,15.37,3.86,23.61,3.07,9-.86,18.17-.45,27.24-.11a50.3,50.3,0,0,0,18.41-2.69c8.44-2.88,17.41-5.92,23.29-12.33,9.14-10,15.2-22.43,15.35-36.3.4-39.78.14-79.57.14-119C1309.63,342.83,1308.58,340.77,1307.18,340.5Zm-32.42,32.72c-.09,16.9,0,33.79,0,51.26-5.67,8.17-14.62,10.71-23.79,9.19-8.56-1.43-15.52-6.54-19.52-15.34-2-4.48.93-9.07-2.31-13.42-2.49-3.34-.39-7.35.89-11.52,1.63-5.28,1.42-11.08,4.09-16.56,4.33-8.88,12-11.64,20.53-12.91,5.45-.81,11.12-.15,15.73-.15C1275,366.27,1274.77,369.68,1274.76,373.22Z"/><path class="cls-1" d="M1196.7,120.56c-2.16-1.87-3.48-3.75-6.58-4-7-.62-14-1.77-20.87-3-15.93-2.8-33.8-2.94-48,1.9-5.31,1.8-11,2.94-15.83,5.61-20.13,11.16-26,30.52-28.24,51.57-.52,4.7.45,9.59-.22,14.25-.77,5.32,1.87,9.84,3.08,14.43,4.56,17.29,11,30,30.54,35.9,6.2,1.87,12.6,5.75,18.92,4,10.81-2.92,22.31-5.27,30.46-16.89a63.12,63.12,0,0,1-1.92,21.21c-2.63,10.56-10.77,15.42-19,16.24-16.26,1.65-32.92,1.64-49-3.39a22,22,0,0,1-2.48-1.21c-5.29,8.88-1.44,18.46-2.85,27.08,4.7,6,12.1,3.28,17.25,6.64,18.23-1.29,36.53,2,54.82-2.28,9.6-2.27,18.17-6.7,24.34-12.89a52,52,0,0,0,15.39-36.18C1197,199.84,1196.7,160.07,1196.7,120.56Zm-36.41,80.65c-2.22,2.22-4,5.33-6.6,6.25s-5.35,1.49-8.06,2.51c-3.78,1.42-8.49.36-11.51.36-8-3.73-13.68-8.32-16.79-15.61-5.64-13.26-4.34-34.25,4.41-45.58,4.16-5.4,11-8.41,18.21-8.95,5.55-.42,11.17-.08,16.16-.08,4,2.4,4.29,5.55,4.25,9.23C1160.19,166.66,1160.29,184,1160.29,201.21Z"/><path class="cls-1" d="M975,238.55,920.85,70.36H866.77c-1.14,1.7-2.51,3-2.9,4.46-6.17,23.75-15.51,46.47-22.16,70.1-6.51,23.14-15.27,45.64-22.34,68.66-2.54,8.29-4.18,16.74-7.8,24.67a14.35,14.35,0,0,0,2.33.67c10.83,0,21.65,0,33.78,0,5-14.86,9.83-29.3,14.75-44h60.78c7.39,13.69,8.87,29.27,14.43,44,6.26,0,12.7.11,19.13,0S969.41,239.52,975,238.55ZM871.39,163.06l21.73-69.45,20.94,69.45Z"/><path class="cls-1" d="M939.07,369.14c-5.6-13.78-14-25.25-28.87-30.52-11.67-4.13-23.17-4.8-35.26-1.06-7.75,2.39-12.11,8.41-18.78,14V338h-34V499a86.08,86.08,0,0,1-.07,9.09c-.34,3.22,2.17,4.4,3.93,6.51,8.89,0,18-.18,27,.1,3.39.1,5.71-1.09,8.12-4.12,0-14.1,0-28.78,0-43.46a2,2,0,0,1,.47-1.09,3.06,3.06,0,0,1,.66-.6c11.61-1.29,22.88.38,34.41-2.45,15.76-3.87,28.94-11.92,37.06-25.52,5.19-8.7,8.85-18.38,8.1-29.16a152.22,152.22,0,0,1,0-22.09A37.68,37.68,0,0,0,939.07,369.14ZM903,417.86c-4.23,11.23-13,18.41-24.73,18.71-5.51.14-11,0-16.77,0v-64c6.56-4.86,12.86-6.29,25.93-6.16,14.91,5.67,17.28,17.69,17.94,30.4C905.69,403.92,905.58,410.9,903,417.86Z"/><path class="cls-1" d="M1428.5,238.62h38.67c0-16.48.34-32.08-.09-47.65-.42-15.26,1.43-30.51-2.14-45.82a53.63,53.63,0,0,0-9.52-20.85c-6.6-8.79-16.5-10.75-26-12.49-6.32-1.15-13,0-19.79,1.8-8.88,2.39-15.74,8.19-23.79,11.24-4-3.08.21-7.95-2.59-10.28H1353V238.4h36V155.16c3-4.66,7.08-7.51,12.63-9.47h17.6l9.24,5.94Z"/><path class="cls-1" d="M1693.4,155.6c2.78-5.57,7.43-7.69,11.82-9.85H1727l5.84,9.84v83.09h38.67c0-23.15-.55-45.26.25-67.32.36-9.91-1.69-19.35-3.26-28.76-1.44-8.71-5.42-17.39-13.5-22.9-14.39-9.81-33.33-10.78-50.42-3.21-1.88.84-3.29,2.71-5.33,2.74-3.13.06-4,3-6.08,4.23-1.5.91-1.9,3.79-5,2.8v-11.6h-30.71V238.32h36Z"/><path class="cls-1" d="M1168.53,369.15c-4.38-12.48-12.51-20.28-23-26.55-5.19-3.1-23.19-7.49-28.06-7.42a124.19,124.19,0,0,0-23.66,2.24c-23.06,4.76-34.55,20.36-40.29,39.7-2.59,8.75-2,17.44-2.5,26.23-.67,12.73,2.94,24.3,8.7,35.36,8.59,16.47,23.83,23.64,40.78,26.13,13.55,2,27.42.88,40.69-4.69s21.15-15.37,26.9-27.66c4.67-10,6.55-20.55,5.07-30.51A83.94,83.94,0,0,0,1168.53,369.15Zm-32.35,40.35c-.59,2.61-1.66,5.34-1.91,8.21-1,11.3-9,18.67-20.39,18.88-2.16,0-4.45.45-6.46-.09-5-1.33-10.4-2-12.28-8.42-.88-3-3.09-5.64-5.07-9.1,0-9.12.29-19.06-.11-29-.27-6.55,2.3-11.71,5-17.46,3-6.46,7.76-8.19,13.39-8.65,13.6-1.09,20.4,2,24.13,12.63S1138.74,398.31,1136.18,409.5Z"/><path class="cls-1" d="M1864.18,367.33c-1.71-5.9-3.75-12.1-8.52-17.3-10.16-11.08-23.45-13.33-36.86-14.67-17.61-1.75-35,.9-52.54,5.93,0,4.55,0,9.25,0,13.95s.25,9.2.38,14c10.45-2.83,20-5.14,29.94-5.38s20.28-1.69,28.63,6.45c2.86,4.89,5.28,10.55,2.3,17-6.85-.58-13.31,1.5-19.83,2.13a135.13,135.13,0,0,0-25.24,5c-7.93,2.32-14.23,6-18.19,12.15-3.85,6-7.56,12.86-5.86,20.91,1,4.87-.33,9.76,1.61,14.92,3.62,9.61,9.88,15.49,19.23,18.9,18,6.52,34.81,6.67,49.38-7.81,1-1,2-1.47,4.23-1.2,2.26,2.64,0,8.37,4.7,9.9h30.14c0-25.86.16-51.33-.12-76.8C1867.51,379.31,1865.84,373.05,1864.18,367.33Zm-33.25,63c-1.74,6.28-9.22,6.71-14.53,8.44a20,20,0,0,1-18.74-3.45c-3.3-4.18-3.19-10-2.57-15.85l8.59-8.58c6-1.15,11.41,1,16.76-2.58,2.52-1.7,7.69-1.39,10.49,3.64Z"/><path class="cls-1" d="M1508.11,341.42a82.47,82.47,0,0,0-28.57-6.43,149.88,149.88,0,0,0-49,6.34c2,9-3.45,19.08,2.8,26.68,19.82-3.47,38.28-9.17,53.58-.16,6.58,6.85,7,12.49,5.65,19.4-11.78-1.23-22.29,4.43-33.4,2.53-6.29,3.7-14,3.17-20.28,7.6-7,4.95-12.87,10.43-15.88,18.47-1.29,3.44,1.5,7.49-1.85,11-3.62,3.78,4.94,6.1,1.77,10.22,3.79,12.14,9.23,22.09,23.17,26,6.34,1.77,12.32,2,18.52,2.13,10.74.22,20.33-2.93,27.86-11,1.23-1.33,2.45-2.38,4.61-1.85,3.41,2.65-.81,7.51,2,9.86h30.47c0-30.26.58-60.08-.25-89.86C1529,358.26,1521.35,346.75,1508.11,341.42Zm-15.17,91.43c-10.87,6.23-21.67,10.61-33.62,0,.51-5.82-1.57-12.47,4.57-19.65,8.85-2.36,18.46-5.81,29-5.17Z"/><path class="cls-1" d="M1899.14,163.91a77.58,77.58,0,0,0-3.2-23.48c-3-10.68-10.06-19.78-21-23.5a97.11,97.11,0,0,0-27.61-5.53c-16-.61-31.48,2-47,6v27c3.27,1.74,4.29-.71,5.59-.84,12.5-1.29,24.81-5,37.55-3.44s18.94,9.18,18.49,23.67c-7.29-2.57-13.47,3.19-20.62,2.28-7.7-1-15.06.85-22.25,2.8-8,2.18-14.71,6.86-20.64,13-5.18,5.33-6.63,12.2-8.46,18.58-2.34,8.21.93,16.74,5.22,23.52a34.53,34.53,0,0,0,20.37,15.49c6.36,1.8,12.34,1.91,18.53,2,11.25.24,21.09-3.4,28.71-12,.87-1,1.26-1.19,2.2.56,5,.63,1.46,5.57,3.33,8.35h30.58C1898.9,213.17,1898.47,188.53,1899.14,163.91ZM1862.49,209l-12.57,6.43h-14.46c-4.84-3.26-7.72-8.07-9.38-13.74,4.66-12.75,6.6-14.74,18.87-14.56,5.85.09,10.67-5.58,17.54-1.88Z"/><path class="cls-1" d="M1332,186.5c-.4-11.74.83-23-2.6-34.23-5.41-17.69-11.46-29.55-31.29-37.13-14.86-5.67-29.44-4.66-43.7,0-16.41,5.41-25.87,17.83-32,35.2-2.09,5.87-.24,12.33-2.84,16.91-3,5.21-3.21,10.89-1.61,14.58,3.24,7.46,1.68,15.34,4.48,22.8,4.14,11.05,8.77,20.93,19.87,26.64,12.86,6.61,25.2,10.22,37.3,10.23,7.35,0,14.73-.41,22.05.11,7.69.54,14.25-4.93,21.84-2.5v-28c-6-3-10,2-15.12,1.88-9.52-.22-19.11.71-28.53-.23-16.45-1.64-25.23-13.56-22.64-26.26Zm-72.9-40c3.67-8,10.34-10.9,18.25-11.47,6.82-.49,15.14,5.57,17.1,13.47,1.34,5.39,4.42,10.58,3.42,17.41h-41C1256.15,159.11,1256.21,152.81,1259.11,146.48Z"/><path class="cls-1" d="M1573.48,210.54h-23.09l-9.83-8.72V142.44h30V113.77h-31V70.29H1509.4c-6,14.12-3.66,29.57-9.15,44.25h-19.62v28.23H1501c0,18.49-.73,36.59.25,54.59.71,13.2,3.87,25.93,15.23,35.23,6.35,5.19,13.46,8.31,21,8.68,12.07.59,24.49,2.07,36-3.31Z"/><path class="cls-1" d="M1027.66,156.18c12.89-7.32,25.46-14.73,41-9.08v-35c-9.23-2.75-17.25,1-25.47,2.13s-11.9,10-19,13.34c-3.89-4.27.37-9.72-2.61-13H991.44V238.48h36.22Z"/><path class="cls-1" d="M1039.84,335.65c-8-2-15.66.6-23.38,2.13-8.06,1.6-11.05,11-20,13.62V338H965.67V462.6c6.43,0,12.43.12,18.43,0s11.82.7,18-.67v-81.7c12-10.8,26.39-11.91,40.52-11.17,0-11,.07-20.79-.12-30.61C1042.46,337.47,1040.76,336.57,1039.84,335.65Z"/><path class="cls-1" d="M1398.6,335.56c-4.76,2-10.34,2.24-14.46,5.87-3.74,3.3-6.42,8-11.56,9.81-3.15-4.13-.61-8.65-2.19-13h-30v124h35.72V380.71c11.89-11.24,26.18-12.51,41.29-11.61V338.69l-3.52-3.53C1408.79,335.16,1403,333.69,1398.6,335.56Z"/><path class="cls-1" d="M1592.45,238.93c6.45,0,12.46.13,18.46,0,5.85-.16,11.81.73,17.06-.49V114.34h-35.52Z"/><path class="cls-1" d="M1603.12,95.86c6,.18,12,0,18.8,0,3.12-3.12,6.44-5.48,8.46-8.67,3.62-5.72,4.2-11.57.92-18.33-2.36-4.86-4.65-7.73-9.93-9.65-7.8-2.84-14.66-2.39-22.54-.07-8.35,2.47-13.55,13.16-12,23.19C1588,90.37,1594.23,95.58,1603.12,95.86Z"/></g></svg>